STARTFONT 2.1
COMMENT  
COMMENT  WARNING:  This bdf file was generated from an X server using
COMMENT  xbdfdump.  The resulting font is subject to the same copyright,
COMMENT  license, and trademark restrictions as the original font.  The
COMMENT  author and distributors of xbdfdump disclaim all liability for
COMMENT  misuse of the program or its output.
COMMENT  
FONT -phaisarn-psthai-medium-r-normal--10-120-100-100-m-80-tis620-0
SIZE 10 100 100
FONTBOUNDINGBOX 16 18 -8 -3
STARTPROPERTIES 24
FOUNDRY "phaisarn"
FAMILY_NAME "psthai"
WEIGHT_NAME "medium"
SLANT "r"
SETWIDTH_NAME "normal"
ADD_STYLE_NAME ""
PIXEL_SIZE 10
POINT_SIZE 120
RESOLUTION_X 100
RESOLUTION_Y 100
SPACING "m"
AVERAGE_WIDTH 80
CHARSET_REGISTRY "tis620"
CHARSET_ENCODING "0"
STRIKEOUT_ASCENT 16
STRIKEOUT_DESCENT 3
X_HEIGHT 8
FACE_NAME "Ps Thai Bitmap font for X-Windows"
COPYRIGHT "Copyright by Pt,TITech 1997"
WEIGHT 10
QUAD_WIDTH 8
DEFAULT_CHAR 32
FONT_ASCENT 17
FONT_DESCENT 3
ENDPROPERTIES
CHARS 183
STARTCHAR space
ENCODING 32
SWIDTH 576 0
DWIDTH 8 0
BBX 8 16 0 -2
BITMAP
00
00
00
00
00
00
00
00
00
00
00
00
00
00
00
00
ENDCHAR
STARTCHAR exclam
ENCODING 33
SWIDTH 576 0
DWIDTH 8 0
BBX 8 16 0 -2
BITMAP
00
00
00
00
00
18
3c
3c
3c
18
18
00
18
18
00
00
ENDCHAR
STARTCHAR quotedbl
ENCODING 34
SWIDTH 576 0
DWIDTH 8 0
BBX 8 16 0 -2
BITMAP
00
00
00
00
00
66
66
66
24
00
00
00
00
00
00
00
ENDCHAR
STARTCHAR numbersign
ENCODING 35
SWIDTH 576 0
DWIDTH 8 0
BBX 8 16 0 -2
BITMAP
00
00
00
00
00
36
36
7f
36
36
36
7f
36
36
00
00
ENDCHAR
STARTCHAR dollar
ENCODING 36
SWIDTH 576 0
DWIDTH 8 0
BBX 8 16 0 -2
BITMAP
00
00
00
00
18
18
3e
60
60
3c
06
06
7c
18
18
00
ENDCHAR
STARTCHAR percent
ENCODING 37
SWIDTH 576 0
DWIDTH 8 0
BBX 8 16 0 -2
BITMAP
00
00
00
00
00
00
00
62
66
0c
18
30
66
46
00
00
ENDCHAR
STARTCHAR ampersand
ENCODING 38
SWIDTH 576 0
DWIDTH 8 0
BBX 8 16 0 -2
BITMAP
00
00
00
00
00
38
6c
6c
38
7d
6f
66
6e
3b
00
00
ENDCHAR
STARTCHAR apostrophe
ENCODING 39
SWIDTH 576 0
DWIDTH 8 0
BBX 8 16 0 -2
BITMAP
00
00
00
00
00
18
18
18
30
00
00
00
00
00
00
00
ENDCHAR
STARTCHAR parenleft
ENCODING 40
SWIDTH 576 0
DWIDTH 8 0
BBX 8 16 0 -2
BITMAP
00
00
00
00
0c
18
18
30
30
30
30
30
18
18
0c
00
ENDCHAR
STARTCHAR parenright
ENCODING 41
SWIDTH 576 0
DWIDTH 8 0
BBX 8 16 0 -2
BITMAP
00
00
00
00
30
18
18
0c
0c
0c
0c
0c
18
18
30
00
ENDCHAR
STARTCHAR asterisk
ENCODING 42
SWIDTH 576 0
DWIDTH 8 0
BBX 8 16 0 -2
BITMAP
00
00
00
00
00
00
00
66
3c
ff
3c
66
00
00
00
00
ENDCHAR
STARTCHAR plus
ENCODING 43
SWIDTH 576 0
DWIDTH 8 0
BBX 8 16 0 -2
BITMAP
00
00
00
00
00
00
00
18
18
7e
18
18
00
00
00
00
ENDCHAR
STARTCHAR comma
ENCODING 44
SWIDTH 576 0
DWIDTH 8 0
BBX 8 16 0 -2
BITMAP
00
00
00
00
00
00
00
00
00
00
00
00
1c
1c
0c
18
ENDCHAR
STARTCHAR minus
ENCODING 45
SWIDTH 576 0
DWIDTH 8 0
BBX 8 16 0 -2
BITMAP
00
00
00
00
00
00
00
00
00
7e
00
00
00
00
00
00
ENDCHAR
STARTCHAR period
ENCODING 46
SWIDTH 576 0
DWIDTH 8 0
BBX 8 16 0 -2
BITMAP
00
00
00
00
00
00
00
00
00
00
00
00
1c
1c
00
00
ENDCHAR
STARTCHAR slash
ENCODING 47
SWIDTH 576 0
DWIDTH 8 0
BBX 8 16 0 -2
BITMAP
00
00
00
00
00
00
01
03
06
0c
18
30
60
40
00
00
ENDCHAR
STARTCHAR 0
ENCODING 48
SWIDTH 576 0
DWIDTH 8 0
BBX 8 16 0 -2
BITMAP
00
00
00
00
00
3e
63
67
6f
6b
7b
73
63
3e
00
00
ENDCHAR
STARTCHAR 1
ENCODING 49
SWIDTH 576 0
DWIDTH 8 0
BBX 8 16 0 -2
BITMAP
00
00
00
00
08
18
78
18
18
18
18
18
18
7e
00
00
ENDCHAR
STARTCHAR 2
ENCODING 50
SWIDTH 576 0
DWIDTH 8 0
BBX 8 16 0 -2
BITMAP
00
00
00
00
00
3c
66
66
06
0c
18
30
66
7e
00
00
ENDCHAR
STARTCHAR 3
ENCODING 51
SWIDTH 576 0
DWIDTH 8 0
BBX 8 16 0 -2
BITMAP
00
00
00
00
00
3c
66
06
06
1c
06
06
66
3c
00
00
ENDCHAR
STARTCHAR 4
ENCODING 52
SWIDTH 576 0
DWIDTH 8 0
BBX 8 16 0 -2
BITMAP
00
00
00
00
00
06
0e
1e
36
66
7f
06
06
0f
00
00
ENDCHAR
STARTCHAR 5
ENCODING 53
SWIDTH 576 0
DWIDTH 8 0
BBX 8 16 0 -2
BITMAP
00
00
00
00
00
7e
60
60
7c
06
06
06
66
3c
00
00
ENDCHAR
STARTCHAR 6
ENCODING 54
SWIDTH 576 0
DWIDTH 8 0
BBX 8 16 0 -2
BITMAP
00
00
00
00
00
1c
30
60
60
7c
66
66
66
3c
00
00
ENDCHAR
STARTCHAR 7
ENCODING 55
SWIDTH 576 0
DWIDTH 8 0
BBX 8 16 0 -2
BITMAP
00
00
00
00
00
7f
63
63
03
06
0c
18
18
18
00
00
ENDCHAR
STARTCHAR 8
ENCODING 56
SWIDTH 576 0
DWIDTH 8 0
BBX 8 16 0 -2
BITMAP
00
00
00
00
00
3c
66
66
76
3c
6e
66
66
3c
00
00
ENDCHAR
STARTCHAR 9
ENCODING 57
SWIDTH 576 0
DWIDTH 8 0
BBX 8 16 0 -2
BITMAP
00
00
00
00
00
3c
66
66
66
3e
0c
0c
18
38
00
00
ENDCHAR
STARTCHAR colon
ENCODING 58
SWIDTH 576 0
DWIDTH 8 0
BBX 8 16 0 -2
BITMAP
00
00
00
00
00
00
00
1c
1c
00
00
1c
1c
00
00
00
ENDCHAR
STARTCHAR semicolon
ENCODING 59
SWIDTH 576 0
DWIDTH 8 0
BBX 8 16 0 -2
BITMAP
00
00
00
00
00
00
00
1c
1c
00
00
1c
1c
0c
18
00
ENDCHAR
STARTCHAR less
ENCODING 60
SWIDTH 576 0
DWIDTH 8 0
BBX 8 16 0 -2
BITMAP
00
00
00
00
00
06
0c
18
30
60
30
18
0c
06
00
00
ENDCHAR
STARTCHAR equal
ENCODING 61
SWIDTH 576 0
DWIDTH 8 0
BBX 8 16 0 -2
BITMAP
00
00
00
00
00
00
00
00
7e
00
7e
00
00
00
00
00
ENDCHAR
STARTCHAR greater
ENCODING 62
SWIDTH 576 0
DWIDTH 8 0
BBX 8 16 0 -2
BITMAP
00
00
00
00
00
60
30
18
0c
06
0c
18
30
60
00
00
ENDCHAR
STARTCHAR question
ENCODING 63
SWIDTH 576 0
DWIDTH 8 0
BBX 8 16 0 -2
BITMAP
00
00
00
00
00
3c
66
66
0c
18
18
00
18
18
00
00
ENDCHAR
STARTCHAR at
ENCODING 64
SWIDTH 576 0
DWIDTH 8 0
BBX 8 16 0 -2
BITMAP
00
00
00
00
00
3e
63
63
6f
6f
6f
6f
60
3e
00
00
ENDCHAR
STARTCHAR A
ENCODING 65
SWIDTH 576 0
DWIDTH 8 0
BBX 8 16 0 -2
BITMAP
00
00
00
00
00
18
3c
66
66
7e
66
66
66
66
00
00
ENDCHAR
STARTCHAR B
ENCODING 66
SWIDTH 576 0
DWIDTH 8 0
BBX 8 16 0 -2
BITMAP
00
00
00
00
00
7e
33
33
33
3e
33
33
33
7e
00
00
ENDCHAR
STARTCHAR C
ENCODING 67
SWIDTH 576 0
DWIDTH 8 0
BBX 8 16 0 -2
BITMAP
00
00
00
00
00
1e
33
63
60
60
60
63
33
1e
00
00
ENDCHAR
STARTCHAR D
ENCODING 68
SWIDTH 576 0
DWIDTH 8 0
BBX 8 16 0 -2
BITMAP
00
00
00
00
00
7c
36
33
33
33
33
33
36
7c
00
00
ENDCHAR
STARTCHAR E
ENCODING 69
SWIDTH 576 0
DWIDTH 8 0
BBX 8 16 0 -2
BITMAP
00
00
00
00
00
7f
31
30
32
3e
32
30
31
7f
00
00
ENDCHAR
STARTCHAR F
ENCODING 70
SWIDTH 576 0
DWIDTH 8 0
BBX 8 16 0 -2
BITMAP
00
00
00
00
00
7f
33
31
32
3e
32
30
30
78
00
00
ENDCHAR
STARTCHAR G
ENCODING 71
SWIDTH 576 0
DWIDTH 8 0
BBX 8 16 0 -2
BITMAP
00
00
00
00
00
1e
33
63
60
67
63
63
33
1f
00
00
ENDCHAR
STARTCHAR H
ENCODING 72
SWIDTH 576 0
DWIDTH 8 0
BBX 8 16 0 -2
BITMAP
00
00
00
00
00
66
66
66
66
7e
66
66
66
66
00
00
ENDCHAR
STARTCHAR I
ENCODING 73
SWIDTH 576 0
DWIDTH 8 0
BBX 8 16 0 -2
BITMAP
00
00
00
00
00
3c
18
18
18
18
18
18
18
3c
00
00
ENDCHAR
STARTCHAR J
ENCODING 74
SWIDTH 576 0
DWIDTH 8 0
BBX 8 16 0 -2
BITMAP
00
00
00
00
00
0f
06
06
06
06
66
66
66
3c
00
00
ENDCHAR
STARTCHAR K
ENCODING 75
SWIDTH 576 0
DWIDTH 8 0
BBX 8 16 0 -2
BITMAP
00
00
00
00
00
73
33
36
36
3c
36
36
33
73
00
00
ENDCHAR
STARTCHAR L
ENCODING 76
SWIDTH 576 0
DWIDTH 8 0
BBX 8 16 0 -2
BITMAP
00
00
00
00
00
78
30
30
30
30
31
33
33
7f
00
00
ENDCHAR
STARTCHAR M
ENCODING 77
SWIDTH 576 0
DWIDTH 8 0
BBX 8 16 0 -2
BITMAP
00
00
00
00
00
63
77
7f
7f
6b
63
63
63
63
00
00
ENDCHAR
STARTCHAR N
ENCODING 78
SWIDTH 576 0
DWIDTH 8 0
BBX 8 16 0 -2
BITMAP
00
00
00
00
00
63
63
73
7b
7f
6f
67
63
63
00
00
ENDCHAR
STARTCHAR O
ENCODING 79
SWIDTH 576 0
DWIDTH 8 0
BBX 8 16 0 -2
BITMAP
00
00
00
00
00
1c
36
63
63
63
63
63
36
1c
00
00
ENDCHAR
STARTCHAR P
ENCODING 80
SWIDTH 576 0
DWIDTH 8 0
BBX 8 16 0 -2
BITMAP
00
00
00
00
00
7e
63
63
63
7e
60
60
60
60
00
00
ENDCHAR
STARTCHAR Q
ENCODING 81
SWIDTH 576 0
DWIDTH 8 0
BBX 8 16 0 -2
BITMAP
00
00
00
00
00
3e
63
63
63
63
63
63
6b
3e
0c
0e
ENDCHAR
STARTCHAR R
ENCODING 82
SWIDTH 576 0
DWIDTH 8 0
BBX 8 16 0 -2
BITMAP
00
00
00
00
00
7e
33
33
33
3e
36
33
33
73
00
00
ENDCHAR
STARTCHAR S
ENCODING 83
SWIDTH 576 0
DWIDTH 8 0
BBX 8 16 0 -2
BITMAP
00
00
00
00
00
3c
66
66
60
38
0c
66
66
3c
00
00
ENDCHAR
STARTCHAR T
ENCODING 84
SWIDTH 576 0
DWIDTH 8 0
BBX 8 16 0 -2
BITMAP
00
00
00
00
00
7e
5a
18
18
18
18
18
18
3c
00
00
ENDCHAR
STARTCHAR U
ENCODING 85
SWIDTH 576 0
DWIDTH 8 0
BBX 8 16 0 -2
BITMAP
00
00
00
00
00
66
66
66
66
66
66
66
66
3c
00
00
ENDCHAR
STARTCHAR V
ENCODING 86
SWIDTH 576 0
DWIDTH 8 0
BBX 8 16 0 -2
BITMAP
00
00
00
00
00
66
66
66
66
66
66
66
3c
18
00
00
ENDCHAR
STARTCHAR W
ENCODING 87
SWIDTH 576 0
DWIDTH 8 0
BBX 8 16 0 -2
BITMAP
00
00
00
00
00
63
63
63
6b
6b
6b
36
36
36
00
00
ENDCHAR
STARTCHAR X
ENCODING 88
SWIDTH 576 0
DWIDTH 8 0
BBX 8 16 0 -2
BITMAP
00
00
00
00
00
66
66
66
3c
18
3c
66
66
66
00
00
ENDCHAR
STARTCHAR Y
ENCODING 89
SWIDTH 576 0
DWIDTH 8 0
BBX 8 16 0 -2
BITMAP
00
00
00
00
00
66
66
66
66
3c
18
18
18
3c
00
00
ENDCHAR
STARTCHAR Z
ENCODING 90
SWIDTH 576 0
DWIDTH 8 0
BBX 8 16 0 -2
BITMAP
00
00
00
00
00
7f
67
4c
0c
18
30
31
63
7f
00
00
ENDCHAR
STARTCHAR bracketleft
ENCODING 91
SWIDTH 576 0
DWIDTH 8 0
BBX 8 16 0 -2
BITMAP
00
00
00
00
00
3c
30
30
30
30
30
30
30
3c
00
00
ENDCHAR
STARTCHAR backslash
ENCODING 92
SWIDTH 576 0
DWIDTH 8 0
BBX 8 16 0 -2
BITMAP
00
00
00
00
00
00
40
60
30
18
0c
06
03
01
00
00
ENDCHAR
STARTCHAR bracketright
ENCODING 93
SWIDTH 576 0
DWIDTH 8 0
BBX 8 16 0 -2
BITMAP
00
00
00
00
00
3c
0c
0c
0c
0c
0c
0c
0c
3c
00
00
ENDCHAR
STARTCHAR asciicircum
ENCODING 94
SWIDTH 576 0
DWIDTH 8 0
BBX 8 16 0 -2
BITMAP
00
00
00
00
08
1c
36
63
00
00
00
00
00
00
00
00
ENDCHAR
STARTCHAR underscore
ENCODING 95
SWIDTH 576 0
DWIDTH 8 0
BBX 8 16 0 -2
BITMAP
00
00
00
00
00
00
00
00
00
00
00
00
00
00
ff
00
ENDCHAR
STARTCHAR grave
ENCODING 96
SWIDTH 576 0
DWIDTH 8 0
BBX 8 16 0 -2
BITMAP
00
00
00
00
00
18
18
18
0c
00
00
00
00
00
00
00
ENDCHAR
STARTCHAR a
ENCODING 97
SWIDTH 576 0
DWIDTH 8 0
BBX 8 16 0 -2
BITMAP
00
00
00
00
00
00
00
00
3c
06
3e
66
66
3b
00
00
ENDCHAR
STARTCHAR b
ENCODING 98
SWIDTH 576 0
DWIDTH 8 0
BBX 8 16 0 -2
BITMAP
00
00
00
00
00
70
30
30
3e
33
33
33
33
6e
00
00
ENDCHAR
STARTCHAR c
ENCODING 99
SWIDTH 576 0
DWIDTH 8 0
BBX 8 16 0 -2
BITMAP
00
00
00
00
00
00
00
00
3c
66
60
60
66
3c
00
00
ENDCHAR
STARTCHAR d
ENCODING 100
SWIDTH 576 0
DWIDTH 8 0
BBX 8 16 0 -2
BITMAP
00
00
00
00
00
0e
06
06
3e
66
66
66
66
3b
00
00
ENDCHAR
STARTCHAR e
ENCODING 101
SWIDTH 576 0
DWIDTH 8 0
BBX 8 16 0 -2
BITMAP
00
00
00
00
00
00
00
00
3c
66
7e
60
66
3c
00
00
ENDCHAR
STARTCHAR f
ENCODING 102
SWIDTH 576 0
DWIDTH 8 0
BBX 8 16 0 -2
BITMAP
00
00
00
00
1c
36
30
30
7c
30
30
30
30
78
00
00
ENDCHAR
STARTCHAR g
ENCODING 103
SWIDTH 576 0
DWIDTH 8 0
BBX 8 16 0 -2
BITMAP
00
00
00
00
00
00
00
00
3b
66
66
66
3e
06
66
3c
ENDCHAR
STARTCHAR h
ENCODING 104
SWIDTH 576 0
DWIDTH 8 0
BBX 8 16 0 -2
BITMAP
00
00
00
00
00
70
30
30
36
3b
33
33
33
73
00
00
ENDCHAR
STARTCHAR i
ENCODING 105
SWIDTH 576 0
DWIDTH 8 0
BBX 8 16 0 -2
BITMAP
00
00
00
00
00
0c
0c
00
3c
0c
0c
0c
0c
3f
00
00
ENDCHAR
STARTCHAR j
ENCODING 106
SWIDTH 576 0
DWIDTH 8 0
BBX 8 16 0 -2
BITMAP
00
00
00
00
00
06
06
00
1e
06
06
06
06
66
66
3c
ENDCHAR
STARTCHAR k
ENCODING 107
SWIDTH 576 0
DWIDTH 8 0
BBX 8 16 0 -2
BITMAP
00
00
00
00
00
70
30
30
33
36
3c
36
33
73
00
00
ENDCHAR
STARTCHAR l
ENCODING 108
SWIDTH 576 0
DWIDTH 8 0
BBX 8 16 0 -2
BITMAP
00
00
00
00
00
3c
0c
0c
0c
0c
0c
0c
0c
3f
00
00
ENDCHAR
STARTCHAR m
ENCODING 109
SWIDTH 576 0
DWIDTH 8 0
BBX 8 16 0 -2
BITMAP
00
00
00
00
00
00
00
00
7e
6b
6b
6b
6b
63
00
00
ENDCHAR
STARTCHAR n
ENCODING 110
SWIDTH 576 0
DWIDTH 8 0
BBX 8 16 0 -2
BITMAP
00
00
00
00
00
00
00
00
7c
66
66
66
66
66
00
00
ENDCHAR
STARTCHAR o
ENCODING 111
SWIDTH 576 0
DWIDTH 8 0
BBX 8 16 0 -2
BITMAP
00
00
00
00
00
00
00
00
3c
66
66
66
66
3c
00
00
ENDCHAR
STARTCHAR p
ENCODING 112
SWIDTH 576 0
DWIDTH 8 0
BBX 8 16 0 -2
BITMAP
00
00
00
00
00
00
00
00
6e
33
33
33
33
3e
30
70
ENDCHAR
STARTCHAR q
ENCODING 113
SWIDTH 576 0
DWIDTH 8 0
BBX 8 16 0 -2
BITMAP
00
00
00
00
00
00
00
00
3b
66
66
66
66
3e
06
0f
ENDCHAR
STARTCHAR r
ENCODING 114
SWIDTH 576 0
DWIDTH 8 0
BBX 8 16 0 -2
BITMAP
00
00
00
00
00
00
00
00
76
37
3b
30
30
78
00
00
ENDCHAR
STARTCHAR s
ENCODING 115
SWIDTH 576 0
DWIDTH 8 0
BBX 8 16 0 -2
BITMAP
00
00
00
00
00
00
00
00
3c
66
30
0c
66
3c
00
00
ENDCHAR
STARTCHAR t
ENCODING 116
SWIDTH 576 0
DWIDTH 8 0
BBX 8 16 0 -2
BITMAP
00
00
00
00
00
00
10
30
7c
30
30
30
36
1c
00
00
ENDCHAR
STARTCHAR u
ENCODING 117
SWIDTH 576 0
DWIDTH 8 0
BBX 8 16 0 -2
BITMAP
00
00
00
00
00
00
00
00
66
66
66
66
66
3d
00
00
ENDCHAR
STARTCHAR v
ENCODING 118
SWIDTH 576 0
DWIDTH 8 0
BBX 8 16 0 -2
BITMAP
00
00
00
00
00
00
00
00
66
66
66
66
3c
18
00
00
ENDCHAR
STARTCHAR w
ENCODING 119
SWIDTH 576 0
DWIDTH 8 0
BBX 8 16 0 -2
BITMAP
00
00
00
00
00
00
00
00
63
63
6b
6b
3e
36
00
00
ENDCHAR
STARTCHAR x
ENCODING 120
SWIDTH 576 0
DWIDTH 8 0
BBX 8 16 0 -2
BITMAP
00
00
00
00
00
00
00
00
63
36
1c
1c
36
63
00
00
ENDCHAR
STARTCHAR y
ENCODING 121
SWIDTH 576 0
DWIDTH 8 0
BBX 8 16 0 -2
BITMAP
00
00
00
00
00
00
00
00
33
33
33
33
1e
06
0c
38
ENDCHAR
STARTCHAR z
ENCODING 122
SWIDTH 576 0
DWIDTH 8 0
BBX 8 16 0 -2
BITMAP
00
00
00
00
00
00
00
00
7e
46
0c
30
62
7e
00
00
ENDCHAR
STARTCHAR braceleft
ENCODING 123
SWIDTH 576 0
DWIDTH 8 0
BBX 8 16 0 -2
BITMAP
00
00
00
00
0c
18
18
18
30
60
30
18
18
18
0c
00
ENDCHAR
STARTCHAR bar
ENCODING 124
SWIDTH 576 0
DWIDTH 8 0
BBX 8 16 0 -2
BITMAP
00
00
00
00
18
18
18
18
18
00
18
18
18
18
18
00
ENDCHAR
STARTCHAR braceright
ENCODING 125
SWIDTH 576 0
DWIDTH 8 0
BBX 8 16 0 -2
BITMAP
00
00
00
00
30
18
18
18
0c
06
0c
18
18
18
30
00
ENDCHAR
STARTCHAR asciitilde
ENCODING 126
SWIDTH 576 0
DWIDTH 8 0
BBX 8 16 0 -2
BITMAP
00
00
00
00
00
32
7e
4c
00
00
00
00
00
00
00
00
ENDCHAR
STARTCHAR exclamdown
ENCODING 161
SWIDTH 576 0
DWIDTH 8 0
BBX 8 8 0 0
BITMAP
3c
66
36
66
66
66
66
66
ENDCHAR
STARTCHAR cent
ENCODING 162
SWIDTH 576 0
DWIDTH 8 0
BBX 8 8 0 0
BITMAP
76
76
16
36
36
36
36
1c
ENDCHAR
STARTCHAR sterling
ENCODING 163
SWIDTH 576 0
DWIDTH 8 0
BBX 8 8 0 0
BITMAP
56
76
16
36
36
36
36
1c
ENDCHAR
STARTCHAR currency
ENCODING 164
SWIDTH 576 0
DWIDTH 8 0
BBX 8 8 0 0
BITMAP
3c
66
66
7e
7e
66
66
66
ENDCHAR
STARTCHAR yen
ENCODING 165
SWIDTH 576 0
DWIDTH 8 0
BBX 8 8 0 0
BITMAP
24
7e
66
7e
7e
66
66
66
ENDCHAR
STARTCHAR brokenbar
ENCODING 166
SWIDTH 576 0
DWIDTH 8 0
BBX 8 8 0 0
BITMAP
56
7e
1e
36
36
7e
76
36
ENDCHAR
STARTCHAR section
ENCODING 167
SWIDTH 576 0
DWIDTH 8 0
BBX 8 8 0 0
BITMAP
0c
0e
06
46
66
36
1e
0e
ENDCHAR
STARTCHAR diaeresis
ENCODING 168
SWIDTH 576 0
DWIDTH 8 0
BBX 8 8 0 0
BITMAP
3c
66
06
36
3e
0e
06
06
ENDCHAR
STARTCHAR copyright
ENCODING 169
SWIDTH 576 0
DWIDTH 8 0
BBX 8 8 0 0
BITMAP
3c
66
06
66
76
3f
37
36
ENDCHAR
STARTCHAR ordfeminine
ENCODING 170
SWIDTH 576 0
DWIDTH 8 0
BBX 8 10 0 0
BITMAP
00
06
76
7c
16
36
36
36
36
1c
ENDCHAR
STARTCHAR guillemotleft
ENCODING 171
SWIDTH 576 0
DWIDTH 8 0
BBX 8 10 0 0
BITMAP
00
06
56
7c
16
36
36
36
36
1c
ENDCHAR
STARTCHAR notsign
ENCODING 172
SWIDTH 576 0
DWIDTH 8 0
BBX 8 8 0 0
BITMAP
73
db
5b
db
db
ff
fb
5b
ENDCHAR
STARTCHAR hyphen
ENCODING 173
SWIDTH 576 0
DWIDTH 8 0
BBX 8 11 0 -3
BITMAP
73
db
5b
db
db
db
db
6e
00
0d
0e
ENDCHAR
STARTCHAR registered
ENCODING 174
SWIDTH 576 0
DWIDTH 8 0
BBX 8 11 0 -3
BITMAP
1e
37
1b
33
33
33
73
63
1b
3f
33
ENDCHAR
STARTCHAR macron
ENCODING 175
SWIDTH 576 0
DWIDTH 8 0
BBX 8 11 0 -3
BITMAP
1e
37
1b
33
33
33
73
63
17
7f
69
ENDCHAR
STARTCHAR degree
ENCODING 176
SWIDTH 576 0
DWIDTH 8 0
BBX 8 11 0 -3
BITMAP
3d
72
7c
06
36
3e
0e
06
2a
7e
66
ENDCHAR
STARTCHAR plusminus
ENCODING 177
SWIDTH 576 0
DWIDTH 8 0
BBX 8 8 0 0
BITMAP
56
7f
3b
33
33
33
33
33
ENDCHAR
STARTCHAR twosuperior
ENCODING 178
SWIDTH 576 0
DWIDTH 8 0
BBX 8 8 0 0
BITMAP
53
fb
db
db
fb
ff
db
4b
ENDCHAR
STARTCHAR threesuperior
ENCODING 179
SWIDTH 576 0
DWIDTH 8 0
BBX 8 8 0 0
BITMAP
73
db
5b
db
db
de
ef
6b
ENDCHAR
STARTCHAR acute
ENCODING 180
SWIDTH 576 0
DWIDTH 8 0
BBX 8 8 0 0
BITMAP
3c
66
66
7e
7e
6e
76
66
ENDCHAR
STARTCHAR mu
ENCODING 181
SWIDTH 576 0
DWIDTH 8 0
BBX 8 8 0 0
BITMAP
24
7e
66
7e
7e
6e
76
66
ENDCHAR
STARTCHAR paragraph
ENCODING 182
SWIDTH 576 0
DWIDTH 8 0
BBX 8 8 0 0
BITMAP
3c
66
36
66
66
66
76
36
ENDCHAR
STARTCHAR periodcentered
ENCODING 183
SWIDTH 576 0
DWIDTH 8 0
BBX 8 8 0 0
BITMAP
66
7f
3b
33
33
33
33
33
ENDCHAR
STARTCHAR cedilla
ENCODING 184
SWIDTH 576 0
DWIDTH 8 0
BBX 8 8 0 0
BITMAP
3d
66
7c
36
36
36
36
3c
ENDCHAR
STARTCHAR onesuperior
ENCODING 185
SWIDTH 576 0
DWIDTH 8 0
BBX 8 8 0 0
BITMAP
66
76
36
36
36
3f
37
36
ENDCHAR
STARTCHAR masculine
ENCODING 186
SWIDTH 576 0
DWIDTH 8 0
BBX 8 8 0 0
BITMAP
63
73
33
33
33
33
33
3e
ENDCHAR
STARTCHAR guillemotright
ENCODING 187
SWIDTH 576 0
DWIDTH 8 0
BBX 8 11 0 0
BITMAP
03
03
03
63
73
33
33
33
33
33
3e
ENDCHAR
STARTCHAR onequarter
ENCODING 188
SWIDTH 576 0
DWIDTH 8 0
BBX 8 8 0 0
BITMAP
33
73
63
6b
6b
7f
77
22
ENDCHAR
STARTCHAR onehalf
ENCODING 189
SWIDTH 576 0
DWIDTH 8 0
BBX 8 11 0 0
BITMAP
03
03
03
33
73
63
6b
6b
7f
77
22
ENDCHAR
STARTCHAR threequarters
ENCODING 190
SWIDTH 576 0
DWIDTH 8 0
BBX 8 8 0 0
BITMAP
63
73
33
6b
6b
7f
77
22
ENDCHAR
STARTCHAR questiondown
ENCODING 191
SWIDTH 576 0
DWIDTH 8 0
BBX 8 11 0 0
BITMAP
03
03
03
63
73
33
6b
6b
7f
77
22
ENDCHAR
STARTCHAR Agrave
ENCODING 192
SWIDTH 576 0
DWIDTH 8 0
BBX 8 8 0 0
BITMAP
1e
33
1b
33
33
33
73
63
ENDCHAR
STARTCHAR Aacute
ENCODING 193
SWIDTH 576 0
DWIDTH 8 0
BBX 8 8 0 0
BITMAP
66
76
36
36
36
7e
76
36
ENDCHAR
STARTCHAR Acircumflex
ENCODING 194
SWIDTH 576 0
DWIDTH 8 0
BBX 8 8 0 0
BITMAP
36
76
66
36
66
66
66
7c
ENDCHAR
STARTCHAR Atilde
ENCODING 195
SWIDTH 576 0
DWIDTH 8 0
BBX 8 8 0 0
BITMAP
3d
76
7c
0c
0c
0c
1c
18
ENDCHAR
STARTCHAR Adiaeresis
ENCODING 196
SWIDTH 576 0
DWIDTH 8 0
BBX 8 11 0 -3
BITMAP
3c
66
36
66
66
66
76
36
06
06
06
ENDCHAR
STARTCHAR Aring
ENCODING 197
SWIDTH 576 0
DWIDTH 8 0
BBX 8 8 0 0
BITMAP
3c
66
36
7e
6e
66
76
36
ENDCHAR
STARTCHAR AE
ENCODING 198
SWIDTH 576 0
DWIDTH 8 0
BBX 8 11 0 -3
BITMAP
1e
33
1b
33
33
33
73
63
03
03
03
ENDCHAR
STARTCHAR Ccedilla
ENCODING 199
SWIDTH 576 0
DWIDTH 8 0
BBX 8 8 0 0
BITMAP
3c
66
06
06
06
06
1e
1c
ENDCHAR
STARTCHAR Egrave
ENCODING 200
SWIDTH 576 0
DWIDTH 8 0
BBX 8 10 0 0
BITMAP
00
06
3c
6e
66
7e
7e
66
66
66
ENDCHAR
STARTCHAR Eacute
ENCODING 201
SWIDTH 576 0
DWIDTH 8 0
BBX 8 8 0 0
BITMAP
63
73
33
3b
3f
33
33
3e
ENDCHAR
STARTCHAR Ecircumflex
ENCODING 202
SWIDTH 576 0
DWIDTH 8 0
BBX 8 9 0 0
BITMAP
06
3c
6e
36
7e
6e
66
76
36
ENDCHAR
STARTCHAR Ediaeresis
ENCODING 203
SWIDTH 576 0
DWIDTH 8 0
BBX 8 8 0 0
BITMAP
67
77
32
3f
3b
33
33
33
ENDCHAR
STARTCHAR Igrave
ENCODING 204
SWIDTH 576 0
DWIDTH 8 0
BBX 8 9 0 0
BITMAP
03
63
76
33
6b
6b
7f
77
22
ENDCHAR
STARTCHAR Iacute
ENCODING 205
SWIDTH 576 0
DWIDTH 8 0
BBX 8 8 0 0
BITMAP
3c
66
06
36
76
66
66
7c
ENDCHAR
STARTCHAR Icircumflex
ENCODING 206
SWIDTH 576 0
DWIDTH 8 0
BBX 8 9 0 0
BITMAP
06
3c
7e
06
36
76
66
66
7c
ENDCHAR
STARTCHAR Idiaeresis
ENCODING 207
SWIDTH 576 0
DWIDTH 8 0
BBX 8 8 0 0
BITMAP
36
76
66
3e
06
06
06
0c
ENDCHAR
STARTCHAR ETH
ENCODING 208
SWIDTH 576 0
DWIDTH 8 0
BBX 8 7 0 0
BITMAP
32
76
3c
00
32
76
3c
ENDCHAR
STARTCHAR Ntilde
ENCODING 209
SWIDTH 0 0
DWIDTH 0 0
BBX 8 3 -8 9
BITMAP
32
76
3c
ENDCHAR
STARTCHAR Ograve
ENCODING 210
SWIDTH 576 0
DWIDTH 8 0
BBX 8 8 0 0
BITMAP
3c
66
06
06
06
06
06
06
ENDCHAR
STARTCHAR Oacute
ENCODING 211
SWIDTH 576 0
DWIDTH 8 0
BBX 16 12 -8 0
BITMAP
1c00
3600
1c00
0000
003c
0066
0006
0006
0006
0006
0006
0006
ENDCHAR
STARTCHAR Ocircumflex
ENCODING 212
SWIDTH 0 0
DWIDTH 0 0
BBX 8 3 -8 9
BITMAP
00
3c
7e
ENDCHAR
STARTCHAR Otilde
ENCODING 213
SWIDTH 0 0
DWIDTH 0 0
BBX 8 3 -8 9
BITMAP
06
3e
7e
ENDCHAR
STARTCHAR Odiaeresis
ENCODING 214
SWIDTH 0 0
DWIDTH 0 0
BBX 8 3 -8 9
BITMAP
0c
3a
7c
ENDCHAR
STARTCHAR multiply
ENCODING 215
SWIDTH 0 0
DWIDTH 0 0
BBX 8 3 -8 9
BITMAP
0a
3e
7e
ENDCHAR
STARTCHAR Ooblique
ENCODING 216
SWIDTH 0 0
DWIDTH 0 0
BBX 8 2 -8 -3
BITMAP
0e
06
ENDCHAR
STARTCHAR Ugrave
ENCODING 217
SWIDTH 0 0
DWIDTH 0 0
BBX 8 2 -8 -3
BITMAP
36
1e
ENDCHAR
STARTCHAR Uacute
ENCODING 218
SWIDTH 0 0
DWIDTH 0 0
BBX 8 2 -8 -3
BITMAP
1c
1c
ENDCHAR
STARTCHAR Udiaeresis
ENCODING 220
SWIDTH 576 0
DWIDTH 8 0
BBX 8 9 0 -1
BITMAP
00
00
00
00
00
00
00
7e
42
ENDCHAR
STARTCHAR ssharp
ENCODING 223
SWIDTH 576 0
DWIDTH 8 0
BBX 8 13 0 -2
BITMAP
0c
0c
7e
33
33
33
3e
33
33
33
7e
0c
0c
ENDCHAR
STARTCHAR agrave
ENCODING 224
SWIDTH 576 0
DWIDTH 8 0
BBX 8 8 0 0
BITMAP
18
18
18
18
18
18
1c
0c
ENDCHAR
STARTCHAR aacute
ENCODING 225
SWIDTH 576 0
DWIDTH 8 0
BBX 8 8 0 0
BITMAP
6c
6c
6c
6c
6c
6c
7e
36
ENDCHAR
STARTCHAR acircumflex
ENCODING 226
SWIDTH 576 0
DWIDTH 8 0
BBX 8 12 0 0
BITMAP
3d
66
78
18
18
18
18
18
18
18
1c
0c
ENDCHAR
STARTCHAR atilde
ENCODING 227
SWIDTH 576 0
DWIDTH 8 0
BBX 8 12 0 0
BITMAP
3c
66
76
36
0c
0c
0c
0c
0c
0c
0e
06
ENDCHAR
STARTCHAR adiaeresis
ENCODING 228
SWIDTH 576 0
DWIDTH 8 0
BBX 8 12 0 0
BITMAP
6c
7c
3c
0c
0c
0c
0c
0c
0c
0c
0e
06
ENDCHAR
STARTCHAR aring
ENCODING 229
SWIDTH 576 0
DWIDTH 8 0
BBX 8 11 0 -3
BITMAP
3c
66
06
06
06
06
06
06
06
06
06
ENDCHAR
STARTCHAR ae
ENCODING 230
SWIDTH 576 0
DWIDTH 8 0
BBX 8 11 0 -2
BITMAP
24
7e
66
76
36
06
06
06
06
06
06
ENDCHAR
STARTCHAR ccedilla
ENCODING 231
SWIDTH 0 0
DWIDTH 0 0
BBX 8 4 -8 9
BITMAP
03
3e
30
3e
ENDCHAR
STARTCHAR egrave
ENCODING 232
SWIDTH 0 0
DWIDTH 0 0
BBX 8 3 -8 12
BITMAP
06
06
00
ENDCHAR
STARTCHAR eacute
ENCODING 233
SWIDTH 0 0
DWIDTH 0 0
BBX 8 3 -8 12
BITMAP
19
0f
1c
ENDCHAR
STARTCHAR ecircumflex
ENCODING 234
SWIDTH 0 0
DWIDTH 0 0
BBX 8 3 -8 12
BITMAP
2a
7e
6c
ENDCHAR
STARTCHAR ediaeresis
ENCODING 235
SWIDTH 0 0
DWIDTH 0 0
BBX 8 3 -8 12
BITMAP
0c
1e
0c
ENDCHAR
STARTCHAR igrave
ENCODING 236
SWIDTH 0 0
DWIDTH 0 0
BBX 8 3 -8 12
BITMAP
07
0c
0c
ENDCHAR
STARTCHAR iacute
ENCODING 237
SWIDTH 0 0
DWIDTH 0 0
BBX 8 3 -8 9
BITMAP
1c
36
1c
ENDCHAR
STARTCHAR icircumflex
ENCODING 238
SWIDTH 0 0
DWIDTH 0 0
BBX 8 4 -8 9
BITMAP
0e
3a
28
30
ENDCHAR
STARTCHAR idiaeresis
ENCODING 239
SWIDTH 576 0
DWIDTH 8 0
BBX 8 6 0 0
BITMAP
3c
66
7e
7e
66
3c
ENDCHAR
STARTCHAR eth
ENCODING 240
SWIDTH 576 0
DWIDTH 8 0
BBX 8 7 0 0
BITMAP
3c
66
66
66
66
66
3c
ENDCHAR
STARTCHAR ntilde
ENCODING 241
SWIDTH 576 0
DWIDTH 8 0
BBX 8 7 0 0
BITMAP
3c
66
66
76
36
06
3c
ENDCHAR
STARTCHAR ograve
ENCODING 242
SWIDTH 576 0
DWIDTH 8 0
BBX 8 9 0 0
BITMAP
c0
60
6a
7f
7b
7b
6b
63
7f
ENDCHAR
STARTCHAR oacute
ENCODING 243
SWIDTH 576 0
DWIDTH 8 0
BBX 8 7 0 0
BITMAP
22
77
7f
63
63
73
33
ENDCHAR
STARTCHAR ocircumflex
ENCODING 244
SWIDTH 576 0
DWIDTH 8 0
BBX 8 9 0 0
BITMAP
06
06
06
3c
60
6c
68
6c
3e
ENDCHAR
STARTCHAR otilde
ENCODING 245
SWIDTH 576 0
DWIDTH 8 0
BBX 8 9 0 0
BITMAP
06
06
36
3c
60
6c
68
6c
3e
ENDCHAR
STARTCHAR odiaeresis
ENCODING 246
SWIDTH 576 0
DWIDTH 8 0
BBX 8 9 0 0
BITMAP
c0
60
60
7c
66
06
66
66
3c
ENDCHAR
STARTCHAR division
ENCODING 247
SWIDTH 576 0
DWIDTH 8 0
BBX 8 9 0 0
BITMAP
02
01
25
7f
67
67
67
76
34
ENDCHAR
STARTCHAR oslash
ENCODING 248
SWIDTH 576 0
DWIDTH 8 0
BBX 8 8 0 0
BITMAP
03
03
3e
60
63
63
7f
36
ENDCHAR
STARTCHAR ugrave
ENCODING 249
SWIDTH 576 0
DWIDTH 8 0
BBX 8 9 0 0
BITMAP
03
03
03
2e
7c
6c
66
7b
39
ENDCHAR
STARTCHAR uacute
ENCODING 250
SWIDTH 576 0
DWIDTH 8 0
BBX 8 10 0 0
BITMAP
00
db
db
7b
1b
1b
1b
1b
1b
1b
ENDCHAR
STARTCHAR ucircumflex
ENCODING 251
SWIDTH 576 0
DWIDTH 8 0
BBX 8 10 0 0
BITMAP
00
00
60
e0
c8
db
de
f4
60
00
ENDCHAR
ENDFONT
